<svg width="25" height="25" viewBox="0 0 25 25" fill="none" xmlns="http://www.w3.org/2000/svg">
<path d="M16.5405 12.5008C16.5405 13.4954 16.1454 14.4492 15.4422 15.1525C14.7389 15.8558 13.7851 16.2508 12.7905 16.2508C11.796 16.2508 10.8421 15.8558 10.1389 15.1525C9.43561 14.4492 9.04052 13.4954 9.04052 12.5008C9.04052 12.2871 9.06302 12.0783 9.10177 11.8758H7.79052V16.8721C7.79052 17.2196 8.07177 17.5008 8.41927 17.5008H17.163C17.3295 17.5005 17.4892 17.4341 17.6068 17.3162C17.7244 17.1984 17.7905 17.0386 17.7905 16.8721V11.8758H16.4793C16.518 12.0783 16.5405 12.2871 16.5405 12.5008ZM12.7905 15.0008C13.1189 15.0008 13.4441 14.936 13.7474 14.8103C14.0508 14.6845 14.3264 14.5002 14.5585 14.268C14.7907 14.0357 14.9748 13.76 15.1004 13.4566C15.226 13.1532 15.2906 12.828 15.2905 12.4996C15.2904 12.1712 15.2257 11.846 15.0999 11.5427C14.9742 11.2393 14.7899 10.9637 14.5577 10.7316C14.3254 10.4994 14.0497 10.3153 13.7463 10.1897C13.4428 10.0641 13.1177 9.99951 12.7893 9.99959C12.1261 9.99975 11.4901 10.2634 11.0212 10.7324C10.5524 11.2015 10.2891 11.8376 10.2893 12.5008C10.2894 13.164 10.553 13.8 11.0221 14.2689C11.4912 14.7377 12.1273 15.001 12.7905 15.0008ZM15.7905 9.87584H17.2893C17.3888 9.87584 17.4843 9.83637 17.5549 9.76608C17.6254 9.69579 17.6652 9.60041 17.6655 9.50084V8.00209C17.6655 7.9023 17.6259 7.8066 17.5553 7.73604C17.4847 7.66548 17.389 7.62584 17.2893 7.62584H15.7905C15.6907 7.62584 15.595 7.66548 15.5245 7.73604C15.4539 7.8066 15.4143 7.9023 15.4143 8.00209V9.50084C15.4155 9.70709 15.5843 9.87584 15.7905 9.87584ZM12.7905 0.500839C9.60792 0.500839 6.55568 1.76512 4.30524 4.01556C2.05481 6.26599 0.790527 9.31824 0.790527 12.5008C0.790527 15.6834 2.05481 18.7357 4.30524 20.9861C6.55568 23.2366 9.60792 24.5008 12.7905 24.5008C14.3664 24.5008 15.9268 24.1905 17.3827 23.5874C18.8386 22.9843 20.1615 22.1004 21.2758 20.9861C22.3901 19.8718 23.274 18.5489 23.8771 17.093C24.4801 15.6371 24.7905 14.0767 24.7905 12.5008C24.7905 10.925 24.4801 9.36454 23.8771 7.90864C23.274 6.45273 22.3901 5.12986 21.2758 4.01556C20.1615 2.90125 18.8386 2.01734 17.3827 1.41428C15.9268 0.811228 14.3664 0.500839 12.7905 0.500839ZM19.0405 17.3621C19.0405 18.1258 18.4155 18.7508 17.6518 18.7508H7.92927C7.16552 18.7508 6.54052 18.1258 6.54052 17.3621V7.63959C6.54052 6.87584 7.16552 6.25084 7.92927 6.25084H17.6518C18.4155 6.25084 19.0405 6.87584 19.0405 7.63959V17.3621Z" fill="#FFA801"/>
</svg>
