<svg width="14" height="14" viewBox="0 0 14 14" fill="none" xmlns="http://www.w3.org/2000/svg">
<path d="M8.05875 8.53526L5.70733 10.8867H4.15042V12.443H2.59408V13.9993H0V11.4053L5.46467 5.9406C5.28015 5.44982 5.18645 4.92957 5.18817 4.40526C5.18833 3.46547 5.48895 2.55034 6.04613 1.79352C6.60331 1.03671 7.38786 0.477851 8.2852 0.198574C9.18254 -0.080703 10.1457 -0.0657731 11.0339 0.241183C11.9222 0.54814 12.689 1.13104 13.2225 1.90476C13.7559 2.67849 14.028 3.60249 13.9991 4.54184C13.9701 5.48119 13.6416 6.38668 13.0615 7.12606C12.4813 7.86544 11.68 8.39998 10.7745 8.65161C9.86906 8.90325 8.90684 8.8588 8.02842 8.52476L8.05875 8.53468V8.53526ZM12.4524 3.10443V3.10268C12.4524 2.79489 12.3612 2.49401 12.1902 2.23809C12.0192 1.98216 11.7761 1.78268 11.4918 1.66487C11.2075 1.54706 10.8946 1.5162 10.5927 1.57621C10.2908 1.63621 10.0135 1.78438 9.7958 2.00198C9.57812 2.21958 9.42984 2.49683 9.36973 2.7987C9.30961 3.10056 9.34035 3.41346 9.45805 3.69786C9.57576 3.98225 9.77515 4.22536 10.031 4.39644C10.2869 4.56752 10.5877 4.6589 10.8955 4.65901H10.8961C11.3085 4.65886 11.704 4.49508 11.9958 4.20362C12.2876 3.91216 12.4518 3.51684 12.4524 3.10443Z" fill="white"/>
</svg>
