<svg width="63" height="63" viewBox="0 0 63 63" fill="none" xmlns="http://www.w3.org/2000/svg">
<path fill-rule="evenodd" clip-rule="evenodd" d="M50.2891 58.8336C52.5711 58.8336 54.7596 57.9271 56.3732 56.3135C57.9868 54.6999 58.8933 52.5114 58.8933 50.2294C58.8933 47.9475 57.9868 45.759 56.3732 44.1454C54.7596 42.5318 52.5711 41.6253 50.2891 41.6253C48.0072 41.6253 45.8187 42.5318 44.2051 44.1454C42.5915 45.759 41.685 47.9475 41.685 50.2294C41.685 52.5114 42.5915 54.6999 44.2051 56.3135C45.8187 57.9271 48.0072 58.8336 50.2891 58.8336ZM50.2891 62.2753C53.4839 62.2753 56.5478 61.0062 58.8068 58.7471C61.0659 56.4881 62.335 53.4242 62.335 50.2294C62.335 47.0347 61.0659 43.9708 58.8068 41.7117C56.5478 39.4527 53.4839 38.1836 50.2891 38.1836C47.0944 38.1836 44.0305 39.4527 41.7714 41.7117C39.5124 43.9708 38.2433 47.0347 38.2433 50.2294C38.2433 53.4242 39.5124 56.4881 41.7714 58.7471C44.0305 61.0062 47.0944 62.2753 50.2891 62.2753Z" fill="#FFA801"/>
<path fill-rule="evenodd" clip-rule="evenodd" d="M50.2891 44.2065C50.7455 44.2065 51.1832 44.3878 51.5059 44.7106C51.8286 45.0333 52.0099 45.471 52.0099 45.9274V49.517L53.2265 50.7337C53.54 51.0582 53.7135 51.4929 53.7095 51.9441C53.7056 52.3953 53.5246 52.8269 53.2056 53.146C52.8865 53.465 52.4549 53.646 52.0037 53.6499C51.5525 53.6538 51.1178 53.4804 50.7933 53.1669L48.5682 50.9419V45.9274C48.5682 45.471 48.7495 45.0333 49.0723 44.7106C49.395 44.3878 49.8327 44.2065 50.2891 44.2065Z" fill="#FFA801"/>
<path fill-rule="evenodd" clip-rule="evenodd" d="M14.1516 29.5794H10.71V33.021H14.1516V29.5794ZM10.71 26.1377C9.79719 26.1377 8.92179 26.5003 8.27635 27.1457C7.63091 27.7912 7.26831 28.6666 7.26831 29.5794V33.021C7.26831 33.9338 7.63091 34.8092 8.27635 35.4546C8.92179 36.1001 9.79719 36.4627 10.71 36.4627H14.1516C15.0644 36.4627 15.9398 36.1001 16.5853 35.4546C17.2307 34.8092 17.5933 33.9338 17.5933 33.021V29.5794C17.5933 28.6666 17.2307 27.7912 16.5853 27.1457C15.9398 26.5003 15.0644 26.1377 14.1516 26.1377H10.71Z" fill="white"/>
<path fill-rule="evenodd" clip-rule="evenodd" d="M27.9182 29.5794H24.4766V33.021H27.9182V29.5794ZM24.4766 26.1377C23.5638 26.1377 22.6884 26.5003 22.043 27.1457C21.3975 27.7912 21.0349 28.6666 21.0349 29.5794V33.021C21.0349 33.9338 21.3975 34.8092 22.043 35.4546C22.6884 36.1001 23.5638 36.4627 24.4766 36.4627H27.9182C28.831 36.4627 29.7064 36.1001 30.3519 35.4546C30.9973 34.8092 31.3599 33.9338 31.3599 33.021V29.5794C31.3599 28.6666 30.9973 27.7912 30.3519 27.1457C29.7064 26.5003 28.831 26.1377 27.9182 26.1377H24.4766Z" fill="white"/>
<path fill-rule="evenodd" clip-rule="evenodd" d="M41.685 29.5794H38.2433V33.021H41.685V29.5794ZM38.2433 26.1377C37.3305 26.1377 36.4551 26.5003 35.8097 27.1457C35.1642 27.7912 34.8016 28.6666 34.8016 29.5794V33.021C34.8016 33.9338 35.1642 34.8092 35.8097 35.4546C36.4551 36.1001 37.3305 36.4627 38.2433 36.4627H41.685C42.5978 36.4627 43.4732 36.1001 44.1186 35.4546C44.764 34.8092 45.1266 33.9338 45.1266 33.021V29.5794C45.1266 28.6666 44.764 27.7912 44.1186 27.1457C43.4732 26.5003 42.5978 26.1377 41.685 26.1377H38.2433Z" fill="white"/>
<path fill-rule="evenodd" clip-rule="evenodd" d="M14.1516 43.346H10.71V46.7876H14.1516V43.346ZM10.71 39.9043C9.79719 39.9043 8.92179 40.2669 8.27635 40.9123C7.63091 41.5578 7.26831 42.4332 7.26831 43.346V46.7876C7.26831 47.7004 7.63091 48.5758 8.27635 49.2212C8.92179 49.8667 9.79719 50.2293 10.71 50.2293H14.1516C15.0644 50.2293 15.9398 49.8667 16.5853 49.2212C17.2307 48.5758 17.5933 47.7004 17.5933 46.7876V43.346C17.5933 42.4332 17.2307 41.5578 16.5853 40.9123C15.9398 40.2669 15.0644 39.9043 14.1516 39.9043H10.71Z" fill="white"/>
<path fill-rule="evenodd" clip-rule="evenodd" d="M27.9182 43.346H24.4766V46.7876H27.9182V43.346ZM24.4766 39.9043C23.5638 39.9043 22.6884 40.2669 22.043 40.9123C21.3975 41.5578 21.0349 42.4332 21.0349 43.346V46.7876C21.0349 47.7004 21.3975 48.5758 22.043 49.2212C22.6884 49.8667 23.5638 50.2293 24.4766 50.2293H27.9182C28.831 50.2293 29.7064 49.8667 30.3519 49.2212C30.9973 48.5758 31.3599 47.7004 31.3599 46.7876V43.346C31.3599 42.4332 30.9973 41.5578 30.3519 40.9123C29.7064 40.2669 28.831 39.9043 27.9182 39.9043H24.4766Z" fill="white"/>
<path fill-rule="evenodd" clip-rule="evenodd" d="M3.82668 10.6503C3.82668 10.1939 4.00798 9.7562 4.3307 9.43348C4.65342 9.11076 5.09112 8.92946 5.54751 8.92946H14.1517V5.48779H5.54751C4.17833 5.48779 2.86523 6.0317 1.89707 6.99985C0.928915 7.96801 0.38501 9.28111 0.38501 10.6503V51.9503C0.38501 53.3195 0.928915 54.6326 1.89707 55.6007C2.86523 56.5689 4.17833 57.1128 5.54751 57.1128H40.403C39.6691 56.0617 39.1085 54.8997 38.7424 53.6711H5.54751C5.09112 53.6711 4.65342 53.4898 4.3307 53.1671C4.00798 52.8444 3.82668 52.4067 3.82668 51.9503V10.6503ZM48.5683 38.3041C49.7098 38.1408 50.8686 38.1408 52.01 38.3041V10.6503C52.01 9.28111 51.4661 7.96801 50.4979 6.99985C49.5298 6.0317 48.2167 5.48779 46.8475 5.48779H41.685V8.92946H46.8475C47.3039 8.92946 47.7416 9.11076 48.0643 9.43348C48.387 9.7562 48.5683 10.1939 48.5683 10.6503V38.3041ZM17.5933 8.92946H35.7705V5.48779H17.5933V8.92946Z" fill="white"/>
<path fill-rule="evenodd" clip-rule="evenodd" d="M52.0099 20.9754H3.82654V17.5337H52.0099V20.9754Z" fill="white"/>
<path d="M10.71 2.04603C10.71 1.58964 10.8913 1.15193 11.214 0.829216C11.5367 0.506497 11.9744 0.325195 12.4308 0.325195C12.8872 0.325195 13.3249 0.506497 13.6476 0.829216C13.9703 1.15193 14.1516 1.58964 14.1516 2.04603V10.6502C14.1516 11.1066 13.9703 11.5443 13.6476 11.867C13.3249 12.1897 12.8872 12.371 12.4308 12.371C11.9744 12.371 11.5367 12.1897 11.214 11.867C10.8913 11.5443 10.71 11.1066 10.71 10.6502V2.04603Z" fill="white"/>
<path d="M34.8016 2.04603C34.8016 1.58964 34.9829 1.15193 35.3057 0.829216C35.6284 0.506497 36.0661 0.325195 36.5225 0.325195C36.9789 0.325195 37.4166 0.506497 37.7393 0.829216C38.062 1.15193 38.2433 1.58964 38.2433 2.04603V10.6502C38.2433 11.1066 38.062 11.5443 37.7393 11.867C37.4166 12.1897 36.9789 12.371 36.5225 12.371C36.0661 12.371 35.6284 12.1897 35.3057 11.867C34.9829 11.5443 34.8016 11.1066 34.8016 10.6502V2.04603Z" fill="white"/>
</svg>
