<svg width="10" height="10" viewBox="0 0 10 10" fill="none" xmlns="http://www.w3.org/2000/svg">
<path fill-rule="evenodd" clip-rule="evenodd" d="M7.27226 4.09056C7.27226 4.50839 7.18996 4.92212 7.03006 5.30814C6.87017 5.69416 6.63581 6.04491 6.34036 6.34036C6.04491 6.63581 5.69416 6.87017 5.30814 7.03006C4.92212 7.18996 4.50839 7.27226 4.09056 7.27226C3.67273 7.27226 3.259 7.18996 2.87298 7.03006C2.48695 6.87017 2.13621 6.63581 1.84076 6.34036C1.54531 6.04491 1.31095 5.69416 1.15105 5.30814C0.991158 4.92212 0.908861 4.50839 0.908861 4.09056C0.908861 3.24672 1.24408 2.43744 1.84076 1.84076C2.43744 1.24408 3.24672 0.908861 4.09056 0.908861C4.9344 0.908861 5.74367 1.24408 6.34036 1.84076C6.93704 2.43744 7.27226 3.24672 7.27226 4.09056ZM6.6441 7.2868C5.82724 7.9394 4.7915 8.25445 3.7496 8.16726C2.70771 8.08007 1.73874 7.59724 1.04171 6.81795C0.344679 6.03866 -0.0275089 5.02205 0.00158577 3.97692C0.0306804 2.93179 0.458849 1.93746 1.19816 1.19816C1.93746 0.458849 2.93179 0.0306804 3.97692 0.00158577C5.02205 -0.0275089 6.03866 0.344679 6.81795 1.04171C7.59724 1.73874 8.08007 2.70771 8.16726 3.7496C8.25445 4.7915 7.9394 5.82724 7.2868 6.6441L9.8667 9.22309C9.90896 9.26535 9.94249 9.31552 9.96536 9.37074C9.98823 9.42595 10 9.48513 10 9.5449C10 9.60466 9.98823 9.66384 9.96536 9.71906C9.94249 9.77427 9.90896 9.82444 9.8667 9.8667C9.82444 9.90896 9.77427 9.94249 9.71906 9.96536C9.66384 9.98823 9.60466 10 9.5449 10C9.48513 10 9.42595 9.98823 9.37074 9.96536C9.31552 9.94249 9.26535 9.90896 9.22309 9.8667L6.64501 7.2868H6.6441Z" fill="white"/>
</svg>
