<svg width="14" height="14" viewBox="0 0 14 14" fill="none" xmlns="http://www.w3.org/2000/svg">
<path d="M13.3652 10.8552L10.3165 8.08318C10.1724 7.95219 9.98298 7.88234 9.78832 7.88835C9.59367 7.89437 9.40897 7.97579 9.27322 8.11543L7.47847 9.96118C7.04647 9.87868 6.17797 9.60793 5.28397 8.71618C4.38997 7.82143 4.11922 6.95068 4.03897 6.52168L5.88322 4.72618C6.02303 4.59053 6.10457 4.4058 6.11059 4.21108C6.11661 4.01637 6.04663 3.82696 5.91547 3.68293L3.14422 0.634929C3.013 0.490447 2.83063 0.402807 2.63583 0.390624C2.44104 0.378441 2.24917 0.442673 2.10097 0.569679L0.473468 1.96543C0.343801 2.09557 0.266407 2.26877 0.255967 2.45218C0.244717 2.63968 0.0302174 7.08118 3.47422 10.5267C6.47872 13.5304 10.2422 13.7502 11.2787 13.7502C11.4302 13.7502 11.5232 13.7457 11.548 13.7442C11.7314 13.7339 11.9045 13.6562 12.034 13.5259L13.429 11.8977C13.5565 11.75 13.6212 11.5582 13.6093 11.3635C13.5974 11.1687 13.5098 10.9863 13.3652 10.8552Z" fill="#FFA801"/>
</svg>
