<svg width="25" height="25" viewBox="0 0 25 25" fill="none" xmlns="http://www.w3.org/2000/svg">
<path d="M12.5007 0.501068C5.87323 0.501068 0.500732 5.87357 0.500732 12.5011C0.500732 19.1286 5.87323 24.5011 12.5007 24.5011C19.1282 24.5011 24.5007 19.1286 24.5007 12.5011C24.5007 5.87357 19.1282 0.501068 12.5007 0.501068ZM17.1157 14.0398C17.1157 14.0398 18.177 15.0873 18.4382 15.5736C18.4457 15.5836 18.4495 15.5936 18.452 15.5986C18.5582 15.7773 18.5832 15.9161 18.5307 16.0198C18.4432 16.1923 18.1432 16.2773 18.0407 16.2848H16.1657C16.0357 16.2848 15.7632 16.2511 15.4332 16.0236C15.1795 15.8461 14.9295 15.5548 14.6857 15.2711C14.322 14.8486 14.007 14.4836 13.6895 14.4836C13.6492 14.4835 13.6091 14.4898 13.5707 14.5023C13.3307 14.5798 13.0232 14.9223 13.0232 15.8348C13.0232 16.1198 12.7982 16.2836 12.6395 16.2836H11.7807C11.4882 16.2836 9.96448 16.1811 8.61448 14.7573C6.96198 13.0136 5.47448 9.51607 5.46198 9.48357C5.36823 9.25732 5.56198 9.13607 5.77323 9.13607H7.66698C7.91948 9.13607 8.00198 9.28982 8.05948 9.42607C8.12698 9.58482 8.37448 10.2161 8.78073 10.9261C9.43948 12.0836 9.84323 12.5536 10.167 12.5536C10.2277 12.5529 10.2873 12.5374 10.3407 12.5086C10.7632 12.2736 10.6845 10.7673 10.6657 10.4548C10.6657 10.3961 10.6645 9.78107 10.4482 9.48607C10.2932 9.27232 10.0295 9.19107 9.86948 9.16107C9.93424 9.07171 10.0196 8.99925 10.1182 8.94982C10.4082 8.80482 10.9307 8.78357 11.4495 8.78357H11.7382C12.3007 8.79107 12.4457 8.82732 12.6495 8.87857C13.062 8.97732 13.0707 9.24357 13.0345 10.1548C13.0232 10.4136 13.012 10.7061 13.012 11.0511C13.012 11.1261 13.0082 11.2061 13.0082 11.2911C12.9957 11.7548 12.9807 12.2811 13.3082 12.4973C13.3509 12.5241 13.4003 12.5384 13.4507 12.5386C13.5645 12.5386 13.907 12.5386 14.8345 10.9473C15.1205 10.4351 15.3691 9.90291 15.5782 9.35482C15.597 9.32232 15.652 9.22232 15.717 9.18357C15.765 9.15911 15.8181 9.14667 15.872 9.14732H18.0982C18.3407 9.14732 18.507 9.18357 18.5382 9.27732C18.5932 9.42607 18.5282 9.87982 17.512 11.2561L17.0582 11.8548C16.137 13.0623 16.137 13.1236 17.1157 14.0398Z" fill="#FFA801"/>
</svg>
