<svg width="25" height="25" viewBox="0 0 25 25" fill="none" xmlns="http://www.w3.org/2000/svg">
<path d="M14.3746 12.2921L11.5671 10.9821C11.3221 10.8683 11.1209 10.9958 11.1209 11.2671V13.7346C11.1209 14.0058 11.3221 14.1333 11.5671 14.0196L14.3734 12.7096C14.6196 12.5946 14.6196 12.4071 14.3746 12.2921ZM12.3709 0.500839C5.74335 0.500839 0.37085 5.87334 0.37085 12.5008C0.37085 19.1283 5.74335 24.5008 12.3709 24.5008C18.9984 24.5008 24.3709 19.1283 24.3709 12.5008C24.3709 5.87334 18.9984 0.500839 12.3709 0.500839ZM12.3709 17.3758C6.22835 17.3758 6.12085 16.8221 6.12085 12.5008C6.12085 8.17959 6.22835 7.62584 12.3709 7.62584C18.5134 7.62584 18.6209 8.17959 18.6209 12.5008C18.6209 16.8221 18.5134 17.3758 12.3709 17.3758Z" fill="#FFA801"/>
</svg>
